# Created by Open3D 
# object name: plane_1000x1000x1mm
# number of vertices: 8
# number of triangles: 12
v -50 -50 -0.5
vn 0.009999 0.009999 0.9999
v 50 -50 -0.5
vn -0.019995 0.0099975 0.99975
v 50 50 -0.5
vn -0.00499988 -0.00499988 0.999975
v -50 50 -0.5
vn 0.0099975 -0.019995 0.99975
v -50 -50 0.5
vn 0.00499988 0.00499988 -0.999975
v 50 -50 0.5
vn -0.0099975 0.019995 -0.99975
v 50 50 0.5
vn -0.009999 -0.009999 -0.9999
v -50 50 0.5
vn 0.019995 -0.0099975 -0.99975
f 1//1 2//2 3//3
f 1//1 3//3 4//4
f 5//5 8//8 7//7
f 5//5 7//7 6//6
f 4//4 3//3 7//7
f 4//4 7//7 8//8
f 1//1 5//5 6//6
f 1//1 6//6 2//2
f 1//1 4//4 8//8
f 1//1 8//8 5//5
f 2//2 6//6 7//7
f 2//2 7//7 3//3
